<?xml version="1.0" encoding="UTF-8" standalone="no"?>
<!DOCTYPE svg PUBLIC "-//W3C//DTD SVG 1.1//EN" "http://www.w3.org/Graphics/SVG/1.1/DTD/svg11.dtd">
<svg width="100%" height="100%" viewBox="0 0 24 24" version="1.1" xmlns="http://www.w3.org/2000/svg" xmlns:xlink="http://www.w3.org/1999/xlink" xml:space="preserve" xmlns:serif="http://www.serif.com/" style="fill-rule:evenodd;clip-rule:evenodd;stroke-linejoin:round;stroke-miterlimit:2;">
    <g transform="matrix(0.0130834,0,0,0.0130834,-4.32257,-4.41813)">
        <path d="M1247.57,414.121C1754.12,414.121 2164.76,742.944 2164.76,1148.57C2164.76,1290.25 2114.63,1422.54 2027.83,1534.73C2023.54,1541.11 2017.93,1548.17 2010.85,1555.97L2010.32,1556.55C1980.67,1592.02 1947.28,1625.32 1910.57,1656.06C1656.93,1890.5 1239.45,2169.62 1184.35,2126.55C1136.45,2089.12 1263.24,1906.04 1116.96,1875.57C1106.76,1874.4 1096.58,1873.14 1086.49,1871.71L1086.29,1871.7L1086.29,1871.68C656.653,1810.65 330.385,1510.12 330.385,1148.57C330.372,742.944 741.018,414.121 1247.57,414.121ZM1861.66,1160.45L1861.66,1156.46C1861.66,1130.15 1840.14,1108.63 1813.82,1108.63L1680.67,1108.63L1680.67,1032.89L1813.82,1032.89C1840.14,1032.89 1861.66,1011.37 1861.66,985.053L1861.66,981.062C1861.66,954.75 1840.14,933.228 1813.82,933.228L1628.84,933.228C1602.53,933.228 1581.01,954.75 1581.01,981.062L1581.01,1335.84C1581.01,1362.15 1602.53,1383.68 1628.84,1383.68L1813.82,1383.68C1840.14,1383.68 1861.66,1362.15 1861.66,1335.84L1861.66,1331.85C1861.66,1305.54 1840.14,1284.02 1813.82,1284.02L1680.67,1284.02L1680.67,1208.27L1813.82,1208.27C1840.14,1208.29 1861.66,1186.76 1861.66,1160.45ZM1505.92,1368.57L1505.93,1368.55C1514.78,1359.63 1519.76,1347.57 1519.77,1335L1519.77,980.222C1519.77,953.909 1498.24,932.388 1471.92,932.388L1467.93,932.388C1441.62,932.388 1420.1,953.909 1420.1,980.222L1420.1,1188.48L1247.2,956.576C1238.94,942.156 1223.39,932.388 1205.67,932.388L1201.68,932.388C1175.36,932.388 1153.84,953.909 1153.84,980.222L1153.84,1335C1153.84,1361.31 1175.36,1382.84 1201.68,1382.84L1205.67,1382.84C1231.98,1382.84 1253.5,1361.31 1253.5,1335L1253.5,1122.84L1427.64,1360.7C1428.72,1362.37 1429.89,1363.97 1431.15,1365.49L1431.16,1365.5C1435.94,1372.03 1442.49,1376.5 1449.78,1379.23C1455.39,1381.55 1461.51,1382.83 1467.93,1382.83L1471.92,1382.83C1479.71,1382.84 1487.39,1380.92 1494.27,1377.25C1499.05,1374.97 1503.08,1372.03 1505.92,1368.57ZM715.414,1382.83L900.397,1382.83C926.71,1382.83 948.231,1361.31 948.231,1334.99L948.231,1331C948.231,1304.69 926.71,1283.17 900.397,1283.17L767.238,1283.17L767.238,980.209C767.238,953.896 745.717,932.374 719.404,932.374L715.414,932.374C689.101,932.374 667.579,953.896 667.579,980.209L667.579,1334.99C667.579,1361.31 689.101,1382.83 715.414,1382.83ZM1034.67,1382.83L1038.66,1382.83C1064.98,1382.83 1086.5,1361.31 1086.5,1334.99L1086.5,980.215C1086.5,953.902 1064.98,932.381 1038.66,932.381L1034.67,932.381C1008.36,932.381 986.833,953.902 986.833,980.215L986.833,1334.99C986.833,1361.31 1008.36,1382.83 1034.67,1382.83Z" style="fill:rgb(78,78,78);"/>
    </g>
</svg>
