<?xml version="1.0" encoding="UTF-8" standalone="no"?>
<!DOCTYPE svg PUBLIC "-//W3C//DTD SVG 1.1//EN" "http://www.w3.org/Graphics/SVG/1.1/DTD/svg11.dtd">
<svg width="100%" height="100%" viewBox="0 0 20 15" version="1.1" xmlns="http://www.w3.org/2000/svg" xmlns:xlink="http://www.w3.org/1999/xlink" xml:space="preserve" xmlns:serif="http://www.serif.com/" style="fill-rule:evenodd;clip-rule:evenodd;stroke-linejoin:round;stroke-miterlimit:2;">
    <g transform="matrix(1,0,0,1,-1049.48,-4037.61)">
        <g transform="matrix(0.431034,0,0,0.431034,509.431,3835.08)">
            <g id="_2258570Email" serif:id="2258570Email" transform="matrix(0.0863095,0,0,0.0863095,1252.9,464.301)">
                <path d="M230.902,253.373C244.271,262.286 267.729,262.287 281.101,253.372C281.103,253.371 281.106,253.369 281.108,253.368L508.975,101.456C501.501,79.84 480.957,64.268 456.833,64.268L55.166,64.268C31.041,64.268 10.498,79.84 3.023,101.456L230.895,253.369C230.898,253.371 230.9,253.371 230.902,253.373ZM297.748,292.33C297.745,292.332 297.743,292.334 297.741,292.335C286.039,300.136 271.017,304.037 256,304.037C240.98,304.037 225.964,300.137 214.261,292.334C214.259,292.333 214.258,292.332 214.256,292.331L0,149.495L0,406.569C0,436.986 24.747,461.732 55.166,461.732L456.836,461.732C487.254,461.732 512,436.986 512,406.569L512,149.495L297.748,292.33Z" style="fill-rule:nonzero;"/>
            </g>
        </g>
    </g>
</svg>
