<?xml version="1.0" encoding="UTF-8" standalone="no"?>
<!DOCTYPE svg PUBLIC "-//W3C//DTD SVG 1.1//EN" "http://www.w3.org/Graphics/SVG/1.1/DTD/svg11.dtd">
<svg width="100%" height="100%" viewBox="0 0 36 29" version="1.1" xmlns="http://www.w3.org/2000/svg" xmlns:xlink="http://www.w3.org/1999/xlink" xml:space="preserve" xmlns:serif="http://www.serif.com/" style="fill-rule:evenodd;clip-rule:evenodd;stroke-linejoin:round;stroke-miterlimit:2;">
    <g transform="matrix(1,0,0,1,-943,-971)">
        <g id="envelope-o" transform="matrix(1.28571,0,0,1.28571,943,965.857)">
            <path d="M26,23.5L26,11.5C25.672,11.875 25.312,12.219 24.922,12.531C22.688,14.25 20.438,16 18.266,17.812C17.094,18.796 15.641,20 14.016,20L13.985,20C12.36,20 10.907,18.797 9.735,17.812C7.563,15.999 5.313,14.249 3.079,12.531C2.688,12.218 2.329,11.875 2.001,11.5L2.001,23.5C2.001,23.766 2.235,24 2.501,24L25.501,24C25.767,24 26.001,23.766 26.001,23.5L26,23.5ZM26,7.078C26,6.687 26.094,6 25.5,6L2.5,6C2.234,6 2,6.234 2,6.5C2,8.281 2.891,9.828 4.297,10.938C6.391,12.579 8.485,14.235 10.563,15.891C11.391,16.563 12.891,18 13.985,18L14.016,18C15.11,18 16.61,16.563 17.438,15.891C19.516,14.235 21.61,12.578 23.704,10.938C24.72,10.141 26.001,8.407 26.001,7.079L26,7.078ZM28,6.5L28,23.5C28,24.875 26.875,26 25.5,26L2.5,26C1.125,26 0,24.875 0,23.5L0,6.5C0,5.125 1.125,4 2.5,4L25.5,4C26.875,4 28,5.125 28,6.5Z" style="fill:white;fill-rule:nonzero;"/>
        </g>
    </g>
</svg>
