<!-- Generated by IcoMoon.io -->
<svg version="1.1" xmlns="http://www.w3.org/2000/svg" width="1024" height="1024" viewBox="0 0 1024 1024">
<title>smile2</title>
<g id="icomoon-ignore">
</g>
<path fill="#aeafb6" d="M672.418 810.34c0.241 0.241 0.517 0.517 0.793 0.793l186.191 186.191c15.24 15.24 39.997 15.171 55.168 0l82.752-82.752c15.171-15.171 15.24-39.928 0-55.168l-186.191-186.191c-0.276-0.276-0.552-0.552-0.793-0.793 106.888-169.641 86.303-396.415-61.271-543.989-171.262-171.262-449.273-171.365-620.638 0s-171.262 449.376 0 620.638c147.574 147.574 374.348 168.158 543.989 61.271zM197.388 197.391c133.092-133.092 349.523-133.196 482.718 0s133.092 349.626 0 482.718c-133.092 133.092-349.523 133.196-482.718 0s-133.092-349.626 0-482.718z"></path>
</svg>
