<?xml version="1.0" encoding="UTF-8" standalone="no"?>
<!DOCTYPE svg PUBLIC "-//W3C//DTD SVG 1.1//EN" "http://www.w3.org/Graphics/SVG/1.1/DTD/svg11.dtd">
<svg width="100%" height="100%" viewBox="0 0 69 69" version="1.1" xmlns="http://www.w3.org/2000/svg" xmlns:xlink="http://www.w3.org/1999/xlink" xml:space="preserve" xmlns:serif="http://www.serif.com/" style="fill-rule:evenodd;clip-rule:evenodd;stroke-linecap:round;stroke-miterlimit:2;">
    <g transform="matrix(1,0,0,1,-508.764,-4118.76)">
        <g transform="matrix(1,0,0,1,-120,335)">
            <g id="iStock-1216218204" transform="matrix(0.483066,0,0,0.483066,42.285,1488.25)">
                <g transform="matrix(1,0,0,1,677.912,3996.13)">
                    <path d="M671.788,781.43L667.797,800.681C667.753,800.892 667.547,801.027 667.335,800.983L647.224,796.813" style="fill:none;stroke:rgb(62,102,173);stroke-width:4.14px;"/>
                </g>
                <g transform="matrix(1,0,0,1,677.912,3996.13)">
                    <path d="M540.792,826.214C540.792,789.908 570.223,760.476 606.529,760.476C633.759,760.476 657.121,777.031 667.101,800.626" style="fill:none;stroke:rgb(62,102,173);stroke-width:4.14px;"/>
                </g>
                <g transform="matrix(1,0,0,1,677.912,3996.13)">
                    <path d="M542.283,871.587L546.274,852.337C546.318,852.126 546.525,851.99 546.736,852.034L566.848,856.204" style="fill:none;stroke:rgb(62,102,173);stroke-width:4.14px;"/>
                </g>
                <g transform="matrix(1,0,0,1,677.912,3996.13)">
                    <path d="M673.279,826.804C673.279,863.11 643.848,892.541 607.542,892.541C580.313,892.541 556.95,875.986 546.971,852.393" style="fill:none;stroke:rgb(62,102,173);stroke-width:4.14px;"/>
                </g>
                <g transform="matrix(1,0,0,1,677.912,3998.2)">
                    <path d="M607.161,831.066C607.161,831.066 621.185,817.047 606.544,803.421C591.903,789.795 569.319,799 569.319,799C569.319,799 568.011,821.416 581.336,830.079C594.661,838.743 607.161,831.066 607.161,831.066Z" style="fill:rgb(131,199,181);"/>
                </g>
                <g transform="matrix(1,0,0,1,677.912,3996.13)">
                    <path d="M607.161,831.066C607.161,831.066 621.185,817.047 606.544,803.421C591.903,789.795 569.319,799 569.319,799C569.319,799 568.011,821.416 581.336,830.079C594.661,838.743 607.161,831.066 607.161,831.066Z" style="fill:none;stroke:rgb(62,102,173);stroke-width:4.14px;"/>
                </g>
                <g transform="matrix(1,0,0,1,677.912,3998.2)">
                    <path d="M620.105,843.917C620.105,843.917 615.666,831.905 627.936,827.867C640.206,823.829 650.967,835.33 650.967,835.33C650.967,835.33 645.678,848.833 635.521,850.315C625.364,851.798 620.105,843.917 620.105,843.917Z" style="fill:rgb(131,199,181);"/>
                </g>
                <g transform="matrix(1,0,0,1,677.912,3996.13)">
                    <path d="M620.105,843.917C620.105,843.917 615.666,831.905 627.936,827.867C640.206,823.829 650.967,835.33 650.967,835.33C650.967,835.33 645.678,848.833 635.521,850.315C625.364,851.798 620.105,843.917 620.105,843.917Z" style="fill:none;stroke:rgb(62,102,173);stroke-width:4.14px;"/>
                </g>
                <g transform="matrix(1,0,0,1,677.912,3996.13)">
                    <path d="M613.948,863.618C613.948,863.618 619.738,833.296 587.139,810.843" style="fill:none;stroke:rgb(62,102,173);stroke-width:4.14px;"/>
                </g>
                <g transform="matrix(1,0,0,1,677.912,3996.13)">
                    <path d="M633.987,838.533C633.987,838.533 619.268,842.788 613.64,846.634" style="fill:none;stroke:rgb(62,102,173);stroke-width:4.14px;"/>
                </g>
            </g>
        </g>
    </g>
</svg>
