<?xml version="1.0" encoding="UTF-8" standalone="no"?>
<!DOCTYPE svg PUBLIC "-//W3C//DTD SVG 1.1//EN" "http://www.w3.org/Graphics/SVG/1.1/DTD/svg11.dtd">
<svg width="100%" height="100%" viewBox="0 0 64 72" version="1.1" xmlns="http://www.w3.org/2000/svg" xmlns:xlink="http://www.w3.org/1999/xlink" xml:space="preserve" xmlns:serif="http://www.serif.com/" style="fill-rule:evenodd;clip-rule:evenodd;stroke-linejoin:round;stroke-miterlimit:2;">
    <g transform="matrix(1,0,0,1,-511,-3822.51)">
        <g transform="matrix(1,0,0,1,-120,45)">
            <g id="iStock-1269164927" transform="matrix(1.15958,0,0,1.15958,-107.957,-1687.44)">
                <g transform="matrix(1,0,0,1,194.037,4583.76)">
                    <path d="M474.388,142.844C474.388,142.844 478.828,135.914 471.681,131.69C464.533,127.466 456.194,133.206 456.194,133.206C456.194,133.206 457.656,142.411 463.829,144.74C470.002,147.068 474.388,142.844 474.388,142.844Z" style="fill:rgb(131,199,181);fill-rule:nonzero;"/>
                </g>
                <g transform="matrix(1,0,0,1,194.037,4583.76)">
                    <path d="M481.603,146.324C481.603,146.324 477.742,140.297 483.957,136.625C490.172,132.953 497.422,137.943 497.422,137.943C497.422,137.943 496.151,145.947 490.783,147.972C485.416,149.996 481.603,146.324 481.603,146.324Z" style="fill:rgb(131,199,181);fill-rule:nonzero;"/>
                </g>
                <g transform="matrix(1,0,0,1,194.037,4583.76)">
                    <path d="M474.388,142.844L474.397,142.844L474.388,142.844ZM474.388,142.844L474.397,142.844L474.388,142.844ZM457.311,133.689C457.767,135.732 459.528,142.048 464.182,143.804C469.273,145.723 472.971,142.763 473.604,142.205C473.905,141.68 475.197,139.226 474.59,136.705C474.192,135.054 473.042,133.656 471.172,132.551C465.668,129.3 459.211,132.575 457.311,133.689ZM467.578,146.448C466.324,146.448 464.948,146.23 463.477,145.675C456.836,143.17 455.271,133.762 455.207,133.363C455.146,132.982 455.31,132.601 455.627,132.382C455.99,132.133 464.581,126.333 472.189,130.829C474.551,132.224 476.014,134.05 476.539,136.256C477.411,139.921 475.319,143.244 475.229,143.384L475.081,143.564C474.927,143.713 472.021,146.448 467.578,146.448Z" style="fill:rgb(62,102,173);fill-rule:nonzero;"/>
                </g>
                <g transform="matrix(1,0,0,1,194.037,4583.76)">
                    <path d="M482.386,145.684C482.966,146.189 486.119,148.659 490.431,147.036C494.364,145.553 495.885,140.275 496.304,138.429C494.578,137.431 489.119,134.739 484.466,137.486C482.872,138.428 481.893,139.615 481.555,141.014C481.043,143.133 482.113,145.205 482.386,145.684ZM487.524,149.588C483.607,149.588 481.045,147.175 480.909,147.044L480.761,146.864C480.682,146.74 478.834,143.805 479.605,140.565C480.071,138.611 481.363,136.996 483.448,135.764C490.135,131.811 497.671,136.901 497.989,137.12C498.307,137.338 498.47,137.72 498.409,138.1C498.354,138.45 496.98,146.703 491.136,148.907C489.841,149.396 488.629,149.588 487.524,149.588Z" style="fill:rgb(62,102,173);fill-rule:nonzero;"/>
                </g>
                <g transform="matrix(1,0,0,1,194.037,4583.76)">
                    <path d="M480.032,156.44C479.494,156.44 479.05,156.011 479.033,155.469C479.018,154.972 478.481,143.22 464.094,137.35C463.583,137.141 463.337,136.558 463.546,136.046C463.755,135.535 464.339,135.288 464.85,135.498C480.487,141.878 481.018,154.863 481.033,155.413C481.048,155.965 480.612,156.425 480.061,156.439L480.032,156.44Z" style="fill:rgb(62,102,173);fill-rule:nonzero;"/>
                </g>
                <g transform="matrix(1,0,0,1,194.037,4583.76)">
                    <path d="M478.398,149.581C478.152,149.581 477.906,149.49 477.713,149.309C477.311,148.93 477.292,148.297 477.671,147.895C480.361,145.038 487.746,141.015 488.06,140.845C488.544,140.583 489.15,140.761 489.415,141.247C489.679,141.732 489.498,142.339 489.013,142.603C488.939,142.643 481.598,146.642 479.126,149.266C478.93,149.475 478.664,149.581 478.398,149.581Z" style="fill:rgb(62,102,173);fill-rule:nonzero;"/>
                </g>
                <g transform="matrix(1,0,0,1,194.037,4583.76)">
                    <path d="M470.098,191.139C455.282,191.139 443.229,179.085 443.229,164.27C443.229,158.935 445.116,153.66 448.841,148.591C449.166,148.147 449.794,148.049 450.238,148.377C450.684,148.704 450.779,149.33 450.452,149.775C446.986,154.494 445.229,159.37 445.229,164.27C445.229,177.982 456.385,189.139 470.098,189.139C483.811,189.139 494.967,177.982 494.967,164.27C494.967,160.46 494.345,157.494 492.886,154.353C492.653,153.852 492.871,153.257 493.372,153.024C493.874,152.793 494.468,153.011 494.7,153.511C496.268,156.887 496.967,160.206 496.967,164.27C496.967,179.085 484.913,191.139 470.098,191.139Z" style="fill:rgb(62,102,173);fill-rule:nonzero;"/>
                </g>
                <g transform="matrix(1,0,0,1,194.037,4583.76)">
                    <path d="M465.258,169.553L465.258,169.554L465.258,169.553ZM465.238,169.701M471.855,180.689L471.865,180.689L471.855,180.689ZM465.253,169.665C465.219,170.042 465.017,170.369 464.746,170.807C464.45,171.286 464.003,172.01 464.06,172.476C464.094,172.765 464.096,173.057 464.096,173.347C464.096,174.278 464.096,174.592 465.302,174.968C467.539,175.667 469.101,175.819 469.116,175.821C469.401,175.847 469.661,175.995 469.83,176.225C469.999,176.456 470.063,176.748 470.002,177.028C469.693,178.456 469.395,180.109 469.256,181.192C469.834,180.854 470.558,180.382 471.173,179.948C472.727,178.101 475.205,174.725 475.489,173.207C475.913,170.951 475.914,170.042 475.495,168.088C475.365,167.483 475.049,167.239 474.612,166.902C473.992,166.424 473.055,165.701 473.346,163.987C473.568,162.678 473.528,162.332 473.448,161.643C473.409,161.304 473.363,160.906 473.333,160.333C473.276,159.243 472.287,157.709 471.552,156.82C470.898,157.348 469.72,158.61 468.669,159.854C469.509,161.172 470.072,163.441 468.168,165.822C466.834,167.489 465.456,169.211 465.253,169.665ZM468.342,183.672C468.046,183.672 467.879,183.561 467.726,183.458C467.214,183.118 466.769,182.82 467.826,177.651C467.08,177.517 465.997,177.281 464.705,176.877C462.096,176.062 462.096,174.428 462.096,173.346C462.096,173.135 462.099,172.923 462.073,172.714C461.934,171.555 462.603,170.473 463.045,169.756C463.134,169.612 463.216,169.488 463.267,169.388C463.346,168.669 463.99,167.842 466.605,164.573C468.352,162.39 466.851,160.719 466.674,160.536C466.322,160.172 466.292,159.597 466.61,159.205C470.281,154.685 471.312,154.632 471.65,154.614C471.994,154.601 472.323,154.718 472.563,154.957C473.245,155.639 475.218,158.072 475.331,160.229C475.357,160.747 475.399,161.106 475.435,161.413C475.535,162.279 475.575,162.802 475.318,164.322C475.228,164.852 475.309,164.914 475.833,165.318C476.364,165.728 477.168,166.347 477.45,167.669C477.928,169.895 477.929,171.053 477.455,173.575C476.975,176.145 473.063,180.813 472.618,181.336L472.437,181.503C469.995,183.247 468.921,183.672 468.342,183.672Z" style="fill:rgb(62,102,173);fill-rule:nonzero;"/>
                </g>
                <g transform="matrix(1,0,0,1,194.037,4583.76)">
                    <path d="M456.24,186.089L456.197,186.088C455.646,186.065 455.217,185.599 455.24,185.047C455.3,183.632 455.344,181.108 455.208,180.359C455.033,179.397 454.71,177.696 454.615,177.196L452.984,174.026L452.433,173.796L449.075,177.63C448.711,178.046 448.08,178.086 447.664,177.724C447.249,177.36 447.207,176.728 447.571,176.313L451.402,171.937C451.686,171.613 452.144,171.509 452.54,171.673L454.093,172.322C454.311,172.413 454.488,172.578 454.597,172.787L456.46,176.41C456.503,176.496 456.535,176.586 456.553,176.681C456.553,176.681 456.968,178.86 457.175,180.002C457.396,181.215 457.255,184.734 457.238,185.131C457.216,185.669 456.772,186.089 456.24,186.089Z" style="fill:rgb(62,102,173);fill-rule:nonzero;"/>
                </g>
                <g transform="matrix(1,0,0,1,194.037,4583.76)">
                    <path d="M452.304,161.822L452.279,161.821C451.2,161.795 448.59,161.609 447.672,160.445C447.355,160.044 447.24,159.552 447.346,159.06C447.435,158.645 446.557,157.758 445.742,157.272C445.269,156.989 445.112,156.376 445.395,155.902C445.676,155.429 446.289,155.271 446.762,155.551C447.059,155.727 449.577,157.28 449.335,159.276C449.745,159.524 450.983,159.766 452.134,159.815C453.188,159.398 454.267,158.811 454.459,158.542C454.491,158.438 454.491,158.438 454.364,158.066C454.253,157.742 454.102,157.298 453.967,156.601C453.723,155.328 454.317,154.288 454.893,153.283C455.295,152.58 455.711,151.853 455.948,150.942C456.395,149.233 455.661,146.527 455.341,145.629C455.156,145.109 455.428,144.537 455.947,144.352C456.468,144.165 457.04,144.438 457.226,144.958C457.28,145.113 458.574,148.798 457.884,151.447C457.579,152.615 457.052,153.536 456.628,154.276C456.116,155.171 455.831,155.703 455.932,156.223C456.039,156.784 456.159,157.136 456.257,157.419C456.44,157.959 456.615,158.468 456.3,159.31C455.911,160.345 454.104,161.212 452.656,161.758C452.543,161.8 452.424,161.822 452.304,161.822Z" style="fill:rgb(62,102,173);fill-rule:nonzero;"/>
                </g>
                <g transform="matrix(1,0,0,1,194.037,4583.76)">
                    <path d="M492.19,175.717C492.017,175.717 491.834,175.697 491.647,175.65C491.218,175.541 490.614,175.243 490.177,174.441C489.659,173.492 489.6,173.276 489.466,172.363C489.404,171.944 489.313,171.325 489.103,170.273C488.696,168.24 488.687,167.816 489.03,167.245C489.044,167.223 489.068,167.156 489.087,166.952C489.162,166.134 489.499,165.457 489.856,164.741C490.223,164.006 490.637,163.174 490.931,161.925C491.668,158.792 494.688,157.973 494.815,157.94C495.352,157.801 495.896,158.121 496.035,158.656C496.174,159.189 495.855,159.733 495.323,159.875C495.221,159.903 493.332,160.453 492.878,162.382C492.531,163.858 492.04,164.842 491.646,165.633C491.341,166.247 491.119,166.69 491.079,167.133C491.027,167.703 490.905,167.994 490.785,168.205C490.793,168.374 490.848,168.801 491.063,169.881C491.284,170.984 491.38,171.633 491.444,172.072C491.548,172.779 491.548,172.779 491.933,173.483L492.137,173.711C492.243,173.742 492.454,173.669 492.557,173.607C493.022,173.326 493.639,173.467 493.928,173.93C494.217,174.394 494.089,174.998 493.63,175.294C493.551,175.346 492.95,175.717 492.19,175.717Z" style="fill:rgb(62,102,173);fill-rule:nonzero;"/>
                </g>
            </g>
        </g>
    </g>
</svg>
