<?xml version="1.0" encoding="UTF-8" standalone="no"?>
<!DOCTYPE svg PUBLIC "-//W3C//DTD SVG 1.1//EN" "http://www.w3.org/Graphics/SVG/1.1/DTD/svg11.dtd">
<svg width="100%" height="100%" viewBox="0 0 68 70" version="1.1" xmlns="http://www.w3.org/2000/svg" xmlns:xlink="http://www.w3.org/1999/xlink" xml:space="preserve" xmlns:serif="http://www.serif.com/" style="fill-rule:evenodd;clip-rule:evenodd;stroke-linejoin:round;stroke-miterlimit:2;">
    <g transform="matrix(1,0,0,1,-1385,-3997.9)">
        <g transform="matrix(1,0,0,1,745,45)">
            <g id="iStock-1269164927" transform="matrix(0.976157,0,0,0.976157,335.29,3494.69)">
                <g transform="matrix(1,0,0,1,243.813,170.597)">
                    <path d="M70.557,359.646L124.589,359.646L118.392,328.339L76.754,328.339L70.557,359.646ZM125.807,361.646L69.339,361.646C69.04,361.646 68.756,361.513 68.566,361.281C68.377,361.05 68.3,360.746 68.358,360.452L74.952,327.145C75.045,326.677 75.456,326.339 75.933,326.339L119.213,326.339C119.69,326.339 120.101,326.677 120.194,327.145L126.788,360.452C126.846,360.746 126.77,361.05 126.58,361.281C126.39,361.513 126.106,361.646 125.807,361.646Z" style="fill:white;fill-rule:nonzero;"/>
                </g>
                <g transform="matrix(1,0,0,1,243.813,170.597)">
                    <path d="M97.573,370.128C97.021,370.128 96.573,369.681 96.573,369.128L96.573,327.339C96.573,326.786 97.021,326.339 97.573,326.339C98.125,326.339 98.573,326.786 98.573,327.339L98.573,369.128C98.573,369.681 98.125,370.128 97.573,370.128Z" style="fill:white;fill-rule:nonzero;"/>
                </g>
                <g transform="matrix(1,0,0,1,243.813,170.597)">
                    <path d="M83.068,361.646L82.948,361.64C82.4,361.574 82.008,361.077 82.073,360.528L86.03,327.221C86.095,326.673 86.592,326.275 87.141,326.346C87.689,326.411 88.081,326.908 88.016,327.457L84.06,360.765C83.999,361.272 83.567,361.646 83.068,361.646Z" style="fill:white;fill-rule:nonzero;"/>
                </g>
                <g transform="matrix(1,0,0,1,243.813,170.597)">
                    <path d="M112.078,361.646C111.579,361.646 111.147,361.272 111.086,360.765L107.13,327.457C107.065,326.908 107.457,326.411 108.005,326.346C108.548,326.276 109.051,326.673 109.116,327.221L113.073,360.528C113.138,361.077 112.746,361.574 112.198,361.64L112.078,361.646Z" style="fill:white;fill-rule:nonzero;"/>
                </g>
                <g transform="matrix(1,0,0,1,243.813,170.597)">
                    <path d="M121.741,344.993L73.05,344.993C72.498,344.993 72.05,344.546 72.05,343.993C72.05,343.44 72.498,342.993 73.05,342.993L121.741,342.993C122.293,342.993 122.741,343.44 122.741,343.993C122.741,344.546 122.293,344.993 121.741,344.993Z" style="fill:white;fill-rule:nonzero;"/>
                </g>
                <g transform="matrix(1,0,0,1,243.813,170.597)">
                    <path d="M103.278,370.128L91.512,370.128C90.96,370.128 90.512,369.681 90.512,369.128C90.512,368.575 90.96,368.128 91.512,368.128L103.278,368.128C103.831,368.128 104.278,368.575 104.278,369.128C104.278,369.681 103.831,370.128 103.278,370.128Z" style="fill:white;fill-rule:nonzero;"/>
                </g>
                <g transform="matrix(1,0,0,1,243.813,170.597)">
                    <path d="M125.079,305.875C121.85,305.875 119.223,308.502 119.223,311.731C119.223,314.961 121.85,317.588 125.079,317.588C128.308,317.588 130.935,314.961 130.935,311.731C130.935,308.502 128.308,305.875 125.079,305.875ZM125.079,319.588C120.747,319.588 117.223,316.063 117.223,311.731C117.223,307.399 120.747,303.875 125.079,303.875C129.41,303.875 132.935,307.399 132.935,311.731C132.935,316.063 129.41,319.588 125.079,319.588Z" style="fill:white;fill-rule:nonzero;"/>
                </g>
                <g transform="matrix(1,0,0,1,243.813,170.597)">
                    <path d="M125.079,302.938C124.527,302.938 124.079,302.49 124.079,301.938L124.079,299.811C124.079,299.258 124.527,298.811 125.079,298.811C125.631,298.811 126.079,299.258 126.079,299.811L126.079,301.938C126.079,302.49 125.631,302.938 125.079,302.938Z" style="fill:white;fill-rule:nonzero;"/>
                </g>
                <g transform="matrix(1,0,0,1,243.813,170.597)">
                    <path d="M125.079,324.652C124.527,324.652 124.079,324.205 124.079,323.652L124.079,321.525C124.079,320.973 124.527,320.525 125.079,320.525C125.631,320.525 126.079,320.973 126.079,321.525L126.079,323.652C126.079,324.205 125.631,324.652 125.079,324.652Z" style="fill:white;fill-rule:nonzero;"/>
                </g>
                <g transform="matrix(1,0,0,1,243.813,170.597)">
                    <path d="M137,312.731L134.873,312.731C134.32,312.731 133.873,312.284 133.873,311.731C133.873,311.179 134.32,310.731 134.873,310.731L137,310.731C137.552,310.731 138,311.179 138,311.731C138,312.284 137.552,312.731 137,312.731Z" style="fill:white;fill-rule:nonzero;"/>
                </g>
                <g transform="matrix(1,0,0,1,243.813,170.597)">
                    <path d="M115.285,312.731L113.158,312.731C112.606,312.731 112.158,312.284 112.158,311.731C112.158,311.179 112.606,310.731 113.158,310.731L115.285,310.731C115.837,310.731 116.285,311.179 116.285,311.731C116.285,312.284 115.837,312.731 115.285,312.731Z" style="fill:white;fill-rule:nonzero;"/>
                </g>
                <g transform="matrix(1,0,0,1,243.813,170.597)">
                    <path d="M132.004,305.807C131.749,305.807 131.493,305.709 131.297,305.514C130.907,305.124 130.907,304.49 131.297,304.1L132.801,302.595C133.191,302.204 133.825,302.204 134.215,302.595C134.606,302.984 134.606,303.618 134.216,304.009L132.712,305.514C132.517,305.709 132.26,305.807 132.004,305.807Z" style="fill:white;fill-rule:nonzero;"/>
                </g>
                <g transform="matrix(1,0,0,1,243.813,170.597)">
                    <path d="M116.649,321.161C116.394,321.161 116.138,321.063 115.942,320.868C115.552,320.478 115.552,319.845 115.942,319.454L117.447,317.949C117.836,317.559 118.47,317.559 118.861,317.949C119.251,318.34 119.251,318.973 118.861,319.363L117.356,320.868C117.162,321.063 116.905,321.161 116.649,321.161Z" style="fill:white;fill-rule:nonzero;"/>
                </g>
                <g transform="matrix(1,0,0,1,243.813,170.597)">
                    <path d="M118.154,305.807C117.898,305.807 117.642,305.709 117.447,305.514L115.942,304.009C115.552,303.618 115.552,302.985 115.942,302.595C116.333,302.204 116.966,302.204 117.356,302.595L118.861,304.1C119.251,304.49 119.251,305.123 118.861,305.514C118.666,305.709 118.41,305.807 118.154,305.807Z" style="fill:white;fill-rule:nonzero;"/>
                </g>
                <g transform="matrix(1,0,0,1,243.813,170.597)">
                    <path d="M133.508,321.161C133.252,321.161 132.996,321.063 132.801,320.868L131.297,319.363C130.907,318.973 130.907,318.339 131.297,317.949C131.688,317.559 132.321,317.559 132.712,317.949L134.216,319.454C134.606,319.845 134.606,320.479 134.215,320.868C134.02,321.063 133.764,321.161 133.508,321.161Z" style="fill:white;fill-rule:nonzero;"/>
                </g>
            </g>
        </g>
    </g>
</svg>
