<?xml version="1.0" encoding="UTF-8" standalone="no"?>
<!DOCTYPE svg PUBLIC "-//W3C//DTD SVG 1.1//EN" "http://www.w3.org/Graphics/SVG/1.1/DTD/svg11.dtd">
<svg width="100%" height="100%" viewBox="0 0 71 71" version="1.1" xmlns="http://www.w3.org/2000/svg" xmlns:xlink="http://www.w3.org/1999/xlink" xml:space="preserve" xmlns:serif="http://www.serif.com/" style="fill-rule:evenodd;clip-rule:evenodd;stroke-linecap:round;stroke-miterlimit:2;">
    <g transform="matrix(0.842105,0,0,0.842105,-1339.61,-1229.71)">
        <path d="M1668.58,1475.74L1666.29,1486.65C1666.27,1486.77 1666.15,1486.85 1666.03,1486.82L1654.49,1484.46M1593.44,1501.12C1593.44,1480.54 1610.32,1463.87 1631.15,1463.87C1646.77,1463.87 1660.17,1473.25 1665.89,1486.62M1594.29,1526.83L1596.58,1515.92C1596.61,1515.8 1596.73,1515.72 1596.85,1515.75L1608.38,1518.11M1669.44,1501.45C1669.44,1522.03 1652.56,1538.7 1631.73,1538.7C1616.11,1538.7 1602.71,1529.32 1596.98,1515.95M1631.51,1503.87C1631.51,1503.87 1639.55,1495.92 1631.16,1488.2C1622.76,1480.48 1609.8,1485.7 1609.8,1485.7C1609.8,1485.7 1609.05,1498.4 1616.69,1503.31C1624.34,1508.22 1631.51,1503.87 1631.51,1503.87ZM1638.93,1511.15C1638.93,1511.15 1636.39,1504.34 1643.43,1502.05C1650.47,1499.77 1656.64,1506.28 1656.64,1506.28C1656.64,1506.28 1653.6,1513.93 1647.78,1514.78C1641.95,1515.62 1638.93,1511.15 1638.93,1511.15ZM1635.4,1522.31C1635.4,1522.31 1638.72,1505.13 1620.02,1492.41M1646.9,1508.1C1646.9,1508.1 1638.45,1510.51 1635.23,1512.69" style="fill:none;stroke:white;stroke-width:2.97px;"/>
    </g>
</svg>
