<?xml version="1.0" encoding="UTF-8" standalone="no"?>
<!DOCTYPE svg PUBLIC "-//W3C//DTD SVG 1.1//EN" "http://www.w3.org/Graphics/SVG/1.1/DTD/svg11.dtd">
<svg width="100%" height="100%" viewBox="0 0 162 158" version="1.1" xmlns="http://www.w3.org/2000/svg" xmlns:xlink="http://www.w3.org/1999/xlink" xml:space="preserve" xmlns:serif="http://www.serif.com/" style="fill-rule:evenodd;clip-rule:evenodd;stroke-linejoin:round;stroke-miterlimit:2;">
    <g transform="matrix(1,0,0,1,-1602.47,-1967.72)">
        <g transform="matrix(1,0,0,1,0,1232)">
            <g transform="matrix(1,0,0,1,140,166)">
                <g transform="matrix(0.900931,-0.433962,0.433962,0.900931,-158.739,753.473)">
                    <text x="1570.89px" y="724.407px" style="font-family:'NotoSansTC-Bold', 'Noto Sans TC', sans-serif;font-weight:700;font-size:15px;fill:rgb(222,222,222);">G</text>
                </g>
                <g transform="matrix(0.807639,-0.589677,0.589677,0.807639,-118.755,1071.9)">
                    <text x="1583.56px" y="717.969px" style="font-family:'NotoSansTC-Bold', 'Noto Sans TC', sans-serif;font-weight:700;font-size:15px;fill:rgb(222,222,222);">R</text>
                </g>
                <g transform="matrix(0.703148,-0.711044,0.711044,0.703148,-31.3001,1344.4)">
                    <text x="1594.46px" y="709.689px" style="font-family:'NotoSansTC-Bold', 'Noto Sans TC', sans-serif;font-weight:700;font-size:15px;fill:rgb(222,222,222);">E</text>
                </g>
                <g transform="matrix(0.583007,-0.812467,0.812467,0.583007,99.3867,1594.66)">
                    <text x="1603.21px" y="700.51px" style="font-family:'NotoSansTC-Bold', 'Noto Sans TC', sans-serif;font-weight:700;font-size:15px;fill:rgb(222,222,222);">E</text>
                </g>
                <g transform="matrix(0.439097,-0.89844,0.89844,0.439097,283.304,1833.97)">
                    <text x="1610.46px" y="690.093px" style="font-family:'NotoSansTC-Bold', 'Noto Sans TC', sans-serif;font-weight:700;font-size:15px;fill:rgb(222,222,222);">N</text>
                </g>
                <g transform="matrix(0.191848,-0.981425,0.981425,0.191848,650.336,2130.12)">
                    <text x="1618.58px" y="670.174px" style="font-family:'NotoSansTC-Bold', 'Noto Sans TC', sans-serif;font-weight:700;font-size:15px;fill:rgb(222,222,222);">E</text>
                </g>
                <g transform="matrix(0.0253636,-0.999678,0.999678,0.0253636,922.261,2261.3)">
                    <text x="1620.83px" y="657.672px" style="font-family:'NotoSansTC-Bold', 'Noto Sans TC', sans-serif;font-weight:700;font-size:15px;fill:rgb(222,222,222);">N</text>
                </g>
                <g transform="matrix(-0.146939,-0.989146,0.989146,-0.146939,1223.02,2340.69)">
                    <text x="1620.84px" y="642.965px" style="font-family:'NotoSansTC-Bold', 'Noto Sans TC', sans-serif;font-weight:700;font-size:15px;fill:rgb(222,222,222);">E</text>
                </g>
                <g transform="matrix(-0.311255,-0.950327,0.950327,-0.311255,1523.52,2365.07)">
                    <text x="1618.8px" y="630.455px" style="font-family:'NotoSansTC-Bold', 'Noto Sans TC', sans-serif;font-weight:700;font-size:15px;fill:rgb(222,222,222);">R</text>
                </g>
                <g transform="matrix(-0.465515,-0.88504,0.88504,-0.465515,1819.27,2333.69)">
                    <text x="1614.31px" y="617.507px" style="font-family:'NotoSansTC-Bold', 'Noto Sans TC', sans-serif;font-weight:700;font-size:15px;fill:rgb(222,222,222);">G</text>
                </g>
                <g transform="matrix(-0.81006,-0.586347,0.586347,-0.81006,2539.39,2001.71)">
                    <text x="1593.91px" y="589.551px" style="font-family:'NotoSansTC-Bold', 'Noto Sans TC', sans-serif;font-weight:700;font-size:15px;fill:rgb(222,222,222);">‧</text>
                </g>
                <g transform="matrix(-0.966826,-0.255437,0.255437,-0.966826,2933.47,1528.67)">
                    <text x="1566px" y="573.845px" style="font-family:'NotoSansTC-Bold', 'Noto Sans TC', sans-serif;font-weight:700;font-size:15px;fill:rgb(222,222,222);">S</text>
                </g>
                <g transform="matrix(-0.99631,-0.085823,0.085823,-0.99631,3052.35,1272.78)">
                    <text x="1553.53px" y="570.779px" style="font-family:'NotoSansTC-Bold', 'Noto Sans TC', sans-serif;font-weight:700;font-size:15px;fill:rgb(222,222,222);">U</text>
                </g>
                <g transform="matrix(-0.996642,0.0818836,-0.0818836,-0.996642,3119.6,1011.84)">
                    <text x="1539.05px" y="569.887px" style="font-family:'NotoSansTC-Bold', 'Noto Sans TC', sans-serif;font-weight:700;font-size:15px;fill:rgb(222,222,222);">S</text>
                </g>
                <g transform="matrix(-0.971805,0.235787,-0.235787,-0.971805,3144.94,766.215)">
                    <text x="1526.66px" y="571.143px" style="font-family:'NotoSansTC-Bold', 'Noto Sans TC', sans-serif;font-weight:700;font-size:15px;fill:rgb(222,222,222);">T</text>
                </g>
                <g transform="matrix(-0.923863,0.382722,-0.382722,-0.923863,3134.18,524.936)">
                    <text x="1514.88px" y="574.216px" style="font-family:'NotoSansTC-Bold', 'Noto Sans TC', sans-serif;font-weight:700;font-size:15px;fill:rgb(222,222,222);">A</text>
                </g>
                <g transform="matrix(-0.864148,0.503238,-0.503238,-0.864148,3093.41,324.058)">
                    <text x="1502.97px" y="579.572px" style="font-family:'NotoSansTC-Bold', 'Noto Sans TC', sans-serif;font-weight:700;font-size:15px;fill:rgb(222,222,222);">I</text>
                </g>
                <g transform="matrix(-0.783188,0.621785,-0.621785,-0.783188,3030.14,111.062)">
                    <text x="1495.71px" y="583.826px" style="font-family:'NotoSansTC-Bold', 'Noto Sans TC', sans-serif;font-weight:700;font-size:15px;fill:rgb(222,222,222);">N</text>
                </g>
                <g transform="matrix(-0.66487,0.746959,-0.746959,-0.66487,2914.52,-121.114)">
                    <text x="1484.43px" y="593.255px" style="font-family:'NotoSansTC-Bold', 'Noto Sans TC', sans-serif;font-weight:700;font-size:15px;fill:rgb(222,222,222);">A</text>
                </g>
                <g transform="matrix(-0.528102,0.849181,-0.849181,-0.528102,2767.55,-331.619)">
                    <text x="1475.92px" y="603.168px" style="font-family:'NotoSansTC-Bold', 'Noto Sans TC', sans-serif;font-weight:700;font-size:15px;fill:rgb(222,222,222);">B</text>
                </g>
                <g transform="matrix(-0.384492,0.923129,-0.923129,-0.384492,2601.38,-504.643)">
                    <text x="1468.93px" y="614.932px" style="font-family:'NotoSansTC-Bold', 'Noto Sans TC', sans-serif;font-weight:700;font-size:15px;fill:rgb(222,222,222);">L</text>
                </g>
                <g transform="matrix(-0.238441,0.971157,-0.971157,-0.238441,2421.76,-646.739)">
                    <text x="1464.46px" y="626.174px" style="font-family:'NotoSansTC-Bold', 'Noto Sans TC', sans-serif;font-weight:700;font-size:15px;fill:rgb(222,222,222);">E</text>
                </g>
                <g transform="matrix(0.120385,0.992727,-0.992727,0.120385,1932.36,-876.314)">
                    <text x="1460.68px" y="652.268px" style="font-family:'NotoSansTC-Bold', 'Noto Sans TC', sans-serif;font-weight:700;font-size:15px;fill:rgb(222,222,222);">‧</text>
                </g>
                <g transform="matrix(0.477876,0.878427,-0.878427,0.477876,1366.89,-932.793)">
                    <text x="1468.11px" y="683.436px" style="font-family:'NotoSansTC-Bold', 'Noto Sans TC', sans-serif;font-weight:700;font-size:15px;fill:rgb(222,222,222);">P</text>
                </g>
                <g transform="matrix(0.621785,0.783188,-0.783188,0.621785,1102.2,-892.065)">
                    <text x="1474.72px" y="695.162px" style="font-family:'NotoSansTC-Bold', 'Noto Sans TC', sans-serif;font-weight:700;font-size:15px;fill:rgb(222,222,222);">O</text>
                </g>
                <g transform="matrix(0.764526,0.644592,-0.644592,0.764526,805.079,-790.307)">
                    <text x="1484.24px" y="706.77px" style="font-family:'NotoSansTC-Bold', 'Noto Sans TC', sans-serif;font-weight:700;font-size:15px;fill:rgb(222,222,222);">W</text>
                </g>
                <g transform="matrix(0.872023,0.489465,-0.489465,0.872023,542.831,-641.255)">
                    <text x="1497.7px" y="717.437px" style="font-family:'NotoSansTC-Bold', 'Noto Sans TC', sans-serif;font-weight:700;font-size:15px;fill:rgb(222,222,222);">E</text>
                </g>
                <g transform="matrix(0.941827,0.336099,-0.336099,0.941827,330.935,-465.032)">
                    <text x="1508.84px" y="723.481px" style="font-family:'NotoSansTC-Bold', 'Noto Sans TC', sans-serif;font-weight:700;font-size:15px;fill:rgb(222,222,222);">R</text>
                </g>
                <g transform="matrix(-0.329552,0.944137,-0.944137,-0.329552,2784.45,-638.766)">
                    <text x="1619.03px" y="669.261px" style="font-family:'NotoSansTC-Bold', 'Noto Sans TC', sans-serif;font-weight:700;font-size:15px;fill:rgb(222,222,222);">‧</text>
                </g>
            </g>
        </g>
    </g>
</svg>
