<?xml version="1.0" encoding="UTF-8" standalone="no"?>
<!DOCTYPE svg PUBLIC "-//W3C//DTD SVG 1.1//EN" "http://www.w3.org/Graphics/SVG/1.1/DTD/svg11.dtd">
<svg width="100%" height="100%" viewBox="0 0 140 61" version="1.1" xmlns="http://www.w3.org/2000/svg" xmlns:xlink="http://www.w3.org/1999/xlink" xml:space="preserve" xmlns:serif="http://www.serif.com/" style="fill-rule:evenodd;clip-rule:evenodd;stroke-linejoin:round;stroke-miterlimit:2;">
    <g transform="matrix(1,0,0,1,-160,-42)">
        <g transform="matrix(3.89587,0,0,3.89587,113.09,-29.2729)">
            <g transform="matrix(1.72787,0,0,1.72787,-8.80306,-20.1905)">
                <g transform="matrix(1,0,0,1,13.2104,26.7991)">
                    <path d="M0,-4.243L0.294,-4.161C0.18,-3.881 0.064,-3.62 -0.055,-3.381L1.326,-3.381L1.326,-4.526L1.628,-4.526L1.628,-3.381L3.65,-3.381L3.65,-3.101L1.628,-3.101L1.628,-1.758L3.5,-1.758L3.5,-1.475L1.628,-1.475L1.628,0.003L3.931,0.003L3.931,0.283L-1.137,0.283L-1.137,0.003L1.326,0.003L1.326,-1.475L-0.554,-1.475L-0.554,-1.758L1.326,-1.758L1.326,-3.101L-0.2,-3.101C-0.403,-2.725 -0.642,-2.371 -0.917,-2.038C-0.979,-2.108 -1.057,-2.182 -1.147,-2.26C-0.666,-2.811 -0.284,-3.472 0,-4.243" style="fill:rgb(99,101,106);fill-rule:nonzero;"/>
                </g>
                <g transform="matrix(1,0,0,1,19.458,22.6407)">
                    <path d="M0,4.101L-0.192,4.251L0.99,4.251C1.114,4.109 1.249,3.927 1.395,3.707L-0.386,3.707C-0.293,3.795 -0.165,3.926 0,4.101M-0.977,3.5L2.033,3.5L2.033,3.056L-0.977,3.056L-0.977,3.5ZM-1.095,0.566L-0.623,0.566L-0.623,0.23L-1.145,0.23L-1.145,0.04L-0.623,0.04L-0.623,-0.28L-0.371,-0.28L-0.371,0.04L0.136,0.04L0.136,0.23L-0.371,0.23L-0.371,0.566L0.086,0.566L0.086,0.748L-0.371,0.748L-0.371,1.095L0.168,1.095L0.168,1.285L-0.371,1.285L-0.371,1.631L0.389,1.631L0.389,-0.367L0.651,-0.367L0.651,1.631L1.416,1.631L1.416,1.285L0.872,1.285L0.872,1.095L1.416,1.095L1.416,0.748L0.948,0.748L0.948,0.566L1.416,0.566L1.416,0.23L0.898,0.23L0.898,0.04L1.416,0.04L1.416,-0.28L1.667,-0.28L1.667,0.04L2.19,0.04L2.19,0.23L1.667,0.23L1.667,0.566L2.14,0.566L2.14,0.748L1.667,0.748L1.667,1.095L2.216,1.095L2.216,1.285L1.667,1.285L1.667,1.631L2.437,1.631L2.437,-0.127L2.694,-0.127L2.694,1.838L-1.649,1.838L-1.649,-0.127L-1.392,-0.127L-1.392,1.631L-0.623,1.631L-0.623,1.285L-1.182,1.285L-1.182,1.095L-0.623,1.095L-0.623,0.748L-1.095,0.748L-1.095,0.566ZM-1.899,2.266L2.944,2.266L2.944,2.472L-1.899,2.472L-1.899,2.266ZM-0.607,3.831L-0.452,3.707L-1.242,3.707L-1.242,2.851L2.298,2.851L2.298,3.707L1.41,3.707L1.657,3.821C1.527,3.981 1.406,4.124 1.292,4.251L3.007,4.251L3.007,4.468L-1.967,4.468L-1.967,4.251L-0.231,4.251C-0.312,4.144 -0.437,4.004 -0.607,3.831" style="fill:rgb(99,101,106);fill-rule:nonzero;"/>
                </g>
                <g transform="matrix(1,0,0,1,-1.42109e-14,-6.8971)">
                    <path d="M25.853,31.082L27.063,31.082L27.063,31.293L25.853,31.293L25.853,31.082ZM25.853,30.558L27.063,30.558L27.063,30.77L25.853,30.77L25.853,30.558ZM25.456,33.065L26.971,33.065L26.971,32.589L25.456,32.589L25.456,33.065ZM26.971,31.896L25.456,31.896L25.456,32.372L26.971,32.372L26.971,31.896ZM23.686,33.065L25.18,33.065L25.18,32.589L23.686,32.589L23.686,33.065ZM23.686,32.372L25.18,32.372L25.18,31.896L23.686,31.896L23.686,32.372ZM23.654,31.082L24.852,31.082L24.852,31.293L23.654,31.293L23.654,31.082ZM23.654,30.558L24.852,30.558L24.852,30.77L23.654,30.77L23.654,30.558ZM23.413,31.674L27.247,31.674L27.247,33.287L25.456,33.287L25.456,33.504C25.454,33.652 25.492,33.754 25.569,33.811C25.644,33.869 25.781,33.898 25.979,33.898L26.966,33.898C27.288,33.908 27.473,33.795 27.52,33.557C27.563,33.391 27.603,33.186 27.638,32.941C27.715,32.971 27.802,33 27.898,33.028C27.856,33.28 27.811,33.489 27.762,33.654C27.687,33.996 27.434,34.161 27.005,34.149L25.939,34.149C25.414,34.163 25.161,33.962 25.18,33.546L25.18,33.287L23.686,33.287L23.686,33.575L23.413,33.575L23.413,31.674ZM23.413,29.427L27.273,29.427L27.273,29.649L25.487,29.649L25.487,30.006L27.699,30.006L27.699,30.921L27.428,30.921L27.428,30.228L25.487,30.228L25.487,31.354L25.22,31.354L25.22,30.228L23.281,30.228L23.281,30.921L23.014,30.921L23.014,30.006L25.22,30.006L25.22,29.649L23.413,29.649L23.413,29.427Z" style="fill:rgb(99,101,106);fill-rule:nonzero;"/>
                </g>
                <g transform="matrix(1,0,0,1,30.209,27.3493)">
                    <path d="M0,-5.031L0.302,-5.031C0.302,-4.635 0.292,-4.238 0.271,-3.842L2.652,-3.842C2.63,-2.842 2.599,-1.995 2.561,-1.301C2.564,-0.508 2.22,-0.125 1.528,-0.153C1.392,-0.15 1.252,-0.147 1.108,-0.145C0.974,-0.143 0.819,-0.142 0.646,-0.142C0.64,-0.25 0.621,-0.359 0.594,-0.468C0.614,-0.468 0.646,-0.467 0.688,-0.465C1.029,-0.454 1.301,-0.449 1.502,-0.449C1.523,-0.448 1.553,-0.447 1.592,-0.447C2.034,-0.447 2.26,-0.757 2.267,-1.377C2.305,-2.17 2.328,-2.896 2.335,-3.553L0.25,-3.553C0.244,-3.535 0.242,-3.51 0.242,-3.476C0.217,-1.895 -0.438,-0.737 -1.725,0C-1.821,-0.116 -1.893,-0.2 -1.94,-0.251C-0.699,-0.954 -0.073,-1.999 -0.062,-3.386C-0.062,-3.404 -0.06,-3.432 -0.058,-3.471C-0.056,-3.507 -0.054,-3.533 -0.053,-3.553L-1.786,-3.553L-1.786,-3.842L-0.031,-3.842C-0.011,-4.229 0,-4.626 0,-5.031" style="fill:rgb(99,101,106);fill-rule:nonzero;"/>
                </g>
            </g>
        </g>
        <g transform="matrix(3.89587,0,0,3.89587,113.09,-29.2729)">
            <g transform="matrix(1,0,0,1,0,0.766714)">
                <g transform="matrix(1,0,0,1,12.9219,28.8013)">
                    <path d="M0,3.393C-0.445,3.393 -0.817,3.008 -0.874,2.502L-0.479,2.502C-0.425,2.792 -0.273,3.004 0,3.004L1.003,3.004C1.322,3.004 1.51,2.72 1.51,2.371C1.51,2.021 1.322,1.737 1.003,1.737L-0.151,1.737C-0.339,1.737 -0.518,1.654 -0.654,1.503C-0.688,1.464 -0.719,1.419 -0.746,1.372C-0.835,1.227 -0.881,1.057 -0.881,0.876C-0.881,0.385 -0.56,0 -0.151,0L1.15,0C1.524,0 1.833,0.323 1.878,0.746L1.486,0.748C1.436,0.54 1.347,0.395 1.15,0.395L-0.151,0.395C-0.385,0.395 -0.485,0.604 -0.485,0.861C-0.485,1.134 -0.39,1.348 -0.151,1.348L1.003,1.348C1.248,1.348 1.482,1.467 1.648,1.675L1.682,1.718C1.812,1.9 1.885,2.132 1.885,2.371C1.885,2.935 1.489,3.393 1.003,3.393L0,3.393Z" style="fill:rgb(3,161,224);fill-rule:nonzero;"/>
                </g>
                <g transform="matrix(1,0,0,1,15.3984,32.1945)">
                    <path d="M0,-3.132L0,0L0.395,0L0.395,-1.667L0.41,-1.685C0.517,-1.804 0.616,-1.89 0.705,-1.942C0.798,-1.995 0.898,-2.024 1.004,-2.024C1.148,-2.024 1.266,-1.968 1.354,-1.858C1.442,-1.749 1.486,-1.605 1.486,-1.429L1.486,0L1.905,0L1.905,-1.315C1.905,-1.586 1.876,-1.784 1.816,-1.92C1.758,-2.053 1.668,-2.158 1.548,-2.235C1.428,-2.31 1.291,-2.348 1.14,-2.348C0.891,-2.348 0.675,-2.255 0.498,-2.072L0.395,-1.967L0.395,-3.132L0,-3.132Z" style="fill:rgb(3,161,224);fill-rule:nonzero;"/>
                </g>
                <g transform="matrix(1,0,0,1,18.8354,31.8402)">
                    <path d="M0,-1.64C-0.167,-1.64 -0.301,-1.589 -0.408,-1.486C-0.504,-1.392 -0.57,-1.263 -0.604,-1.099L0.559,-1.093C0.542,-1.258 0.488,-1.39 0.398,-1.485C0.298,-1.589 0.168,-1.64 0,-1.64M0.061,0.354C-0.181,0.354 -0.378,0.302 -0.527,0.2C-0.676,0.097 -0.797,-0.043 -0.887,-0.217C-0.977,-0.392 -1.023,-0.597 -1.023,-0.828C-1.023,-1.172 -0.927,-1.456 -0.737,-1.671C-0.549,-1.885 -0.301,-1.994 0,-1.994C0.29,-1.994 0.523,-1.888 0.696,-1.681C0.869,-1.471 0.957,-1.186 0.957,-0.832L0.957,-0.796L-0.626,-0.796L-0.62,-0.731C-0.602,-0.525 -0.528,-0.358 -0.401,-0.233C-0.264,-0.098 -0.085,-0.03 0.13,-0.03C0.412,-0.03 0.677,-0.117 0.918,-0.289L0.918,0.103C0.778,0.196 0.651,0.257 0.527,0.296C0.396,0.335 0.238,0.354 0.061,0.354" style="fill:rgb(3,161,224);fill-rule:nonzero;"/>
                </g>
                <g transform="matrix(1,0,0,1,23.5508,32.687)">
                    <path d="M0,-2.523C-0.15,-2.523 -0.279,-2.456 -0.384,-2.324C-0.487,-2.192 -0.54,-1.992 -0.54,-1.73C-0.54,-1.444 -0.488,-1.234 -0.385,-1.104C-0.282,-0.974 -0.151,-0.908 0.006,-0.908C0.161,-0.908 0.292,-0.973 0.397,-1.103C0.5,-1.232 0.553,-1.439 0.553,-1.717C0.553,-1.984 0.499,-2.187 0.392,-2.32C0.285,-2.455 0.153,-2.523 0,-2.523M-0.033,0.358C-0.278,0.358 -0.479,0.296 -0.631,0.175C-0.786,0.051 -0.862,-0.138 -0.857,-0.387L-0.856,-0.411L-0.492,-0.352L-0.49,-0.335C-0.477,-0.228 -0.441,-0.152 -0.38,-0.103C-0.298,-0.035 -0.182,0 -0.035,0C0.123,0 0.245,-0.035 0.33,-0.103C0.414,-0.17 0.471,-0.265 0.5,-0.385C0.512,-0.437 0.52,-0.533 0.523,-0.669L0.526,-0.803L0.424,-0.716C0.295,-0.606 0.143,-0.55 -0.027,-0.55C-0.311,-0.55 -0.535,-0.665 -0.691,-0.889C-0.848,-1.115 -0.926,-1.388 -0.926,-1.703C-0.926,-1.92 -0.89,-2.123 -0.819,-2.303C-0.747,-2.488 -0.641,-2.631 -0.505,-2.731C-0.369,-2.831 -0.208,-2.881 -0.025,-2.881C0.159,-2.881 0.321,-2.819 0.457,-2.696L0.557,-2.605L0.557,-2.881L0.907,-2.881L0.907,-0.876C0.907,-0.52 0.875,-0.275 0.808,-0.124C0.741,0.025 0.635,0.144 0.492,0.23C0.35,0.315 0.173,0.358 -0.033,0.358" style="fill:rgb(3,161,224);fill-rule:nonzero;"/>
                </g>
                <g transform="matrix(1,0,0,1,21.8213,32.0799)">
                    <path d="M0,-2.119C-0.12,-2.194 -0.257,-2.233 -0.409,-2.233C-0.657,-2.233 -0.873,-2.14 -1.051,-1.958L-1.154,-1.851L-1.154,-2.233L-1.548,-2.233L-1.548,0.114L-1.154,0.114L-1.154,-1.553L-1.139,-1.569C-1.031,-1.688 -0.932,-1.774 -0.844,-1.826C-0.75,-1.881 -0.65,-1.908 -0.544,-1.908C-0.4,-1.908 -0.282,-1.852 -0.194,-1.743C-0.106,-1.634 -0.062,-1.489 -0.062,-1.314L-0.062,0.114L0.356,0.114L0.356,-1.199C0.356,-1.472 0.328,-1.67 0.268,-1.805C0.209,-1.937 0.12,-2.044 0,-2.119" style="fill:rgb(3,161,224);fill-rule:nonzero;"/>
                </g>
                <g transform="matrix(1,0,0,1,29.0078,31.8402)">
                    <path d="M0,-1.64C-0.167,-1.64 -0.301,-1.589 -0.408,-1.486C-0.503,-1.393 -0.569,-1.263 -0.604,-1.1L0.559,-1.093C0.542,-1.259 0.488,-1.391 0.398,-1.485C0.298,-1.589 0.168,-1.64 0,-1.64M0.062,0.354C-0.181,0.354 -0.378,0.302 -0.526,0.2C-0.675,0.097 -0.796,-0.043 -0.887,-0.218C-0.977,-0.392 -1.022,-0.597 -1.022,-0.828C-1.022,-1.173 -0.927,-1.456 -0.737,-1.671C-0.549,-1.886 -0.301,-1.994 0,-1.994C0.29,-1.994 0.523,-1.889 0.696,-1.681C0.869,-1.471 0.957,-1.186 0.957,-0.832L0.957,-0.796L-0.625,-0.796L-0.62,-0.731C-0.601,-0.526 -0.528,-0.358 -0.4,-0.233C-0.264,-0.098 -0.085,-0.031 0.13,-0.031C0.412,-0.031 0.678,-0.118 0.918,-0.289L0.918,0.103C0.778,0.196 0.651,0.257 0.527,0.295C0.396,0.334 0.238,0.354 0.062,0.354" style="fill:rgb(3,161,224);fill-rule:nonzero;"/>
                </g>
                <g transform="matrix(1,0,0,1,33.7236,32.687)">
                    <path d="M0,-2.523C-0.15,-2.523 -0.279,-2.457 -0.384,-2.324C-0.487,-2.192 -0.54,-1.993 -0.54,-1.731C-0.54,-1.445 -0.488,-1.234 -0.386,-1.105C-0.282,-0.974 -0.151,-0.908 0.006,-0.908C0.16,-0.908 0.292,-0.974 0.396,-1.104C0.5,-1.232 0.553,-1.439 0.553,-1.718C0.553,-1.984 0.499,-2.187 0.392,-2.321C0.284,-2.456 0.152,-2.523 0,-2.523M-0.033,0.358C-0.278,0.358 -0.479,0.296 -0.632,0.174C-0.786,0.05 -0.862,-0.138 -0.857,-0.387L-0.856,-0.412L-0.492,-0.352L-0.49,-0.335C-0.477,-0.228 -0.441,-0.152 -0.381,-0.103C-0.298,-0.035 -0.182,-0.001 -0.035,-0.001C0.123,-0.001 0.245,-0.035 0.33,-0.103C0.413,-0.17 0.471,-0.265 0.5,-0.385C0.512,-0.438 0.52,-0.533 0.522,-0.669L0.526,-0.803L0.424,-0.716C0.295,-0.606 0.143,-0.55 -0.027,-0.55C-0.312,-0.55 -0.535,-0.665 -0.691,-0.89C-0.848,-1.115 -0.927,-1.388 -0.927,-1.704C-0.927,-1.921 -0.891,-2.124 -0.819,-2.304C-0.747,-2.488 -0.642,-2.631 -0.505,-2.732C-0.369,-2.831 -0.208,-2.881 -0.025,-2.881C0.158,-2.881 0.32,-2.819 0.457,-2.696L0.557,-2.605L0.557,-2.881L0.907,-2.881L0.907,-0.876C0.907,-0.521 0.874,-0.275 0.808,-0.125C0.741,0.025 0.635,0.144 0.491,0.23C0.35,0.315 0.173,0.358 -0.033,0.358" style="fill:rgb(3,161,224);fill-rule:nonzero;"/>
                </g>
                <g transform="matrix(1,0,0,1,31.9941,32.0799)">
                    <path d="M0,-2.12C-0.12,-2.195 -0.258,-2.233 -0.409,-2.233C-0.657,-2.233 -0.873,-2.141 -1.051,-1.958L-1.154,-1.851L-1.154,-2.234L-1.549,-2.234L-1.549,0.114L-1.154,0.114L-1.154,-1.553L-1.139,-1.57C-1.031,-1.688 -0.933,-1.775 -0.844,-1.826C-0.751,-1.881 -0.65,-1.908 -0.545,-1.908C-0.4,-1.908 -0.282,-1.853 -0.194,-1.743C-0.106,-1.634 -0.062,-1.49 -0.062,-1.314L-0.062,0.114L0.356,0.114L0.356,-1.2C0.356,-1.472 0.327,-1.67 0.268,-1.806C0.209,-1.938 0.119,-2.044 0,-2.12" style="fill:rgb(3,161,224);fill-rule:nonzero;"/>
                </g>
                <g transform="matrix(1,0,0,1,25.3301,28.7576)">
                    <path d="M0,3.382L0,0.863C0,0.388 0.315,0 0.702,0L2.766,0L2.766,0.426L0.706,0.426C0.509,0.426 0.349,0.622 0.349,0.863L0.349,1.306L2.24,1.306L2.24,1.732L0.344,1.732L0.344,3.382L0,3.382Z" style="fill:rgb(3,161,224);fill-rule:nonzero;"/>
                </g>
                <g transform="matrix(1,0,0,1,35.8701,30.9133)">
                    <path d="M0,-0.76L1.499,-0.76C1.555,-0.76 1.608,-0.775 1.656,-0.802L1.708,-0.832L1.708,-0.84C1.812,-0.919 1.877,-1.055 1.877,-1.202C1.877,-1.368 1.799,-1.477 1.765,-1.516C1.725,-1.563 1.637,-1.64 1.499,-1.64L0,-1.64L0,-0.76ZM-0.367,1.311L-0.367,-2.071L1.495,-2.071C1.687,-2.071 1.87,-1.987 2.008,-1.832L2.022,-1.81C2.162,-1.648 2.239,-1.432 2.239,-1.202C2.239,-0.866 2.069,-0.558 1.806,-0.417C1.74,-0.381 1.669,-0.359 1.596,-0.349L0,-0.345L0,1.311L-0.367,1.311Z" style="fill:rgb(3,161,224);fill-rule:nonzero;"/>
                </g>
                <g transform="matrix(1,0,0,1,44.8848,31.8402)">
                    <path d="M0,-1.64C-0.167,-1.64 -0.301,-1.589 -0.407,-1.486C-0.504,-1.392 -0.569,-1.263 -0.604,-1.099L0.559,-1.093C0.542,-1.258 0.488,-1.39 0.398,-1.485C0.298,-1.589 0.168,-1.64 0,-1.64M0.062,0.354C-0.181,0.354 -0.378,0.302 -0.526,0.2C-0.676,0.097 -0.797,-0.043 -0.887,-0.217C-0.977,-0.392 -1.022,-0.597 -1.022,-0.828C-1.022,-1.172 -0.927,-1.456 -0.737,-1.671C-0.549,-1.885 -0.301,-1.994 0,-1.994C0.29,-1.994 0.523,-1.888 0.696,-1.681C0.869,-1.471 0.957,-1.186 0.957,-0.832L0.957,-0.796L-0.626,-0.796L-0.62,-0.731C-0.602,-0.525 -0.527,-0.358 -0.4,-0.232C-0.264,-0.098 -0.085,-0.03 0.13,-0.03C0.412,-0.03 0.678,-0.117 0.918,-0.289L0.918,0.103C0.778,0.197 0.651,0.257 0.527,0.296C0.396,0.335 0.238,0.354 0.062,0.354" style="fill:rgb(3,161,224);fill-rule:nonzero;"/>
                </g>
                <g transform="matrix(1,0,0,1,47.4814,32.1947)">
                    <path d="M0,-2.348L-0.002,-2.348C-0.014,-2.348 -0.025,-2.347 -0.037,-2.345C-0.298,-2.32 -0.528,-2.025 -0.692,-1.844L-0.692,-2.348L-1.095,-2.348L-1.095,0L-0.692,0L-0.692,-1.254C-0.692,-1.446 -0.638,-1.614 -0.53,-1.754C-0.419,-1.898 -0.292,-1.968 -0.14,-1.968C-0.008,-1.968 0.135,-1.899 0.285,-1.761L0.495,-2.113C0.323,-2.269 0.157,-2.348 0,-2.348" style="fill:rgb(3,161,224);fill-rule:nonzero;"/>
                </g>
                <g transform="matrix(1,0,0,1,39.1816,31.7425)">
                    <path d="M0,-1.471C-0.204,-1.471 -0.375,-1.401 -0.507,-1.263C-0.638,-1.125 -0.705,-0.948 -0.705,-0.736C-0.705,-0.525 -0.637,-0.35 -0.502,-0.216C-0.367,-0.082 -0.192,-0.014 0.019,-0.014C0.229,-0.014 0.402,-0.082 0.536,-0.218C0.67,-0.354 0.737,-0.529 0.737,-0.741C0.737,-0.95 0.667,-1.125 0.527,-1.263C0.389,-1.402 0.211,-1.471 0,-1.471M0.005,0.331C-0.301,0.331 -0.56,0.229 -0.764,0.027C-0.969,-0.174 -1.072,-0.429 -1.072,-0.731C-1.072,-1.035 -0.968,-1.293 -0.761,-1.496C-0.554,-1.7 -0.29,-1.802 0.023,-1.802C0.333,-1.802 0.594,-1.699 0.799,-1.493C1.004,-1.289 1.107,-1.029 1.107,-0.719C1.107,-0.419 1.002,-0.166 0.795,0.032C0.587,0.23 0.321,0.331 0.005,0.331" style="fill:rgb(3,161,224);fill-rule:nonzero;"/>
                </g>
                <g transform="matrix(1,0,0,1,42.6592,30.0184)">
                    <path d="M0,2.129L-0.636,0.595L-1.264,2.129L-1.364,2.129L-2.274,0L-1.885,0L-1.32,1.34L-0.769,0L-0.496,0L0.048,1.341L0.612,0L1.001,0L0.098,2.129L0,2.129Z" style="fill:rgb(3,161,224);fill-rule:nonzero;"/>
                </g>
            </g>
        </g>
    </g>
</svg>
